<svg width="34" height="34" viewBox="0 0 34 34" fill="none" xmlns="http://www.w3.org/2000/svg">
<path d="M4.25 8.85417C4.25 6.31135 6.31135 4.25 8.85417 4.25H25.1458C27.6886 4.25 29.75 6.31135 29.75 8.85417V25.1458C29.75 27.6886 27.6886 29.75 25.1458 29.75H8.85417C6.31135 29.75 4.25 27.6886 4.25 25.1458V8.85417ZM18.0625 10.9792C18.0625 10.3924 17.5868 9.91667 17 9.91667C16.4132 9.91667 15.9375 10.3924 15.9375 10.9792V15.9375H10.9792C10.3924 15.9375 9.91667 16.4132 9.91667 17C9.91667 17.5868 10.3924 18.0625 10.9792 18.0625H15.9375V23.0208C15.9375 23.6076 16.4132 24.0833 17 24.0833C17.5868 24.0833 18.0625 23.6076 18.0625 23.0208V18.0625H23.0208C23.6076 18.0625 24.0833 17.5868 24.0833 17C24.0833 16.4132 23.6076 15.9375 23.0208 15.9375H18.0625V10.9792Z" fill="#212121"/>
</svg>
