<svg width="34" height="34" viewBox="0 0 34 34" fill="none" xmlns="http://www.w3.org/2000/svg">
<path d="M14.9447 3.58868C16.1319 2.5871 17.8681 2.5871 19.0553 3.58868L28.6178 11.6559C29.3358 12.2616 29.75 13.153 29.75 14.0923V27.9797C29.75 29.349 28.64 30.4589 27.2708 30.4589H23.0208C21.6516 30.4589 20.5417 29.349 20.5417 27.9797V20.8964C20.5417 20.3096 20.0659 19.8339 19.4792 19.8339H14.5208C13.934 19.8339 13.4583 20.3096 13.4583 20.8964V27.9797C13.4583 29.349 12.3484 30.4589 10.9792 30.4589H6.72917C5.35996 30.4589 4.25 29.349 4.25 27.9797V14.0923C4.25 13.153 4.66425 12.2616 5.38214 11.6559L14.9447 3.58868Z" fill="#212121"/>
</svg>
