<svg width="34" height="34" viewBox="0 0 34 34" fill="none" xmlns="http://www.w3.org/2000/svg">
<path d="M17 31.1667C9.17597 31.1667 2.83334 24.824 2.83334 17C2.83334 9.17597 9.17597 2.83334 17 2.83334C24.824 2.83334 31.1667 9.17597 31.1667 17C31.1667 24.824 24.824 31.1667 17 31.1667ZM24.0833 19.125C24.0833 17.9514 23.1319 17 21.9583 17H12.0417C10.8681 17 9.91667 17.9514 9.91667 19.125V19.8333C9.91667 22.6262 12.551 25.5 17 25.5C21.449 25.5 24.0833 22.6262 24.0833 19.8333V19.125ZM20.8958 11.6875C20.8958 9.53591 19.1516 7.79168 17 7.79168C14.8484 7.79168 13.1042 9.53591 13.1042 11.6875C13.1042 13.8391 14.8484 15.5833 17 15.5833C19.1516 15.5833 20.8958 13.8391 20.8958 11.6875Z" fill="#212121"/>
</svg>
